<svg width="24" height="24" viewBox="0 0 24 24" fill="none" xmlns="http://www.w3.org/2000/svg">
    <g id="Pharm/About">
        <g id="Info Circle">
            <path id="Info Circle_2" fill-rule="evenodd" clip-rule="evenodd"
                d="M2.0001 11.999C2.0001 6.48002 6.4801 1.99902 12.0001 1.99902C17.5301 1.99902 22.0001 6.48002 22.0001 11.999C22.0001 17.52 17.5301 21.999 12.0001 21.999C6.4801 21.999 2.0001 17.52 2.0001 11.999ZM11.1201 8.20902C11.1201 7.73002 11.5201 7.32902 12.0001 7.32902C12.4801 7.32902 12.8701 7.73002 12.8701 8.20902V12.629C12.8701 13.11 12.4801 13.499 12.0001 13.499C11.5201 13.499 11.1201 13.11 11.1201 12.629V8.20902ZM12.0101 16.68C11.5201 16.68 11.1301 16.28 11.1301 15.8C11.1301 15.32 11.5201 14.93 12.0001 14.93C12.4901 14.93 12.8801 15.32 12.8801 15.8C12.8801 16.28 12.4901 16.68 12.0101 16.68Z"
                fill="#C1C7D0" />
        </g>
    </g>
</svg>
