<svg width="19" height="19" viewBox="0 0 19 19" fill="none" xmlns="http://www.w3.org/2000/svg">
    <path fill-rule="evenodd" clip-rule="evenodd"
        d="M6.33333 5.11892C6.33086 5.42356 6.44403 5.71779 6.65 5.94225L10.0162 9.5L6.65396 13.0578C6.22631 13.5218 6.22631 14.2364 6.65396 14.7005C6.8534 14.9181 7.13501 15.042 7.43019 15.042C7.72536 15.042 8.00698 14.9181 8.20642 14.7005L12.3445 10.321C12.7741 9.85858 12.7741 9.14301 12.3445 8.68063L8.20642 4.29955C8.00698 4.08194 7.72536 3.95804 7.43019 3.95804C7.13501 3.95804 6.8534 4.08194 6.65396 4.29955C6.4468 4.52198 6.33215 4.81497 6.33333 5.11892Z"
        fill="#3F8AE0" />
</svg>
