<svg width="24" height="24" viewBox="0 0 24 24" fill="none" xmlns="http://www.w3.org/2000/svg">
    <path fill-rule="evenodd" clip-rule="evenodd"
        d="M7.99999 6.46589C7.99687 6.85069 8.13982 7.22236 8.39999 7.50589L12.652 11.9999L8.40499 16.4939C7.8648 17.0801 7.8648 17.9827 8.40499 18.5689C8.65691 18.8438 9.01264 19.0003 9.38549 19.0003C9.75834 19.0003 10.1141 18.8438 10.366 18.5689L15.593 13.0369C16.1357 12.4528 16.1357 11.549 15.593 10.9649L10.366 5.43089C10.1141 5.15602 9.75834 4.99951 9.38549 4.99951C9.01264 4.99951 8.65691 5.15602 8.40499 5.43089C8.14332 5.71185 7.9985 6.08195 7.99999 6.46589Z"
        fill="#6E80B0" />
</svg>
