<svg width="24" height="24" viewBox="0 0 24 24" fill="none" xmlns="http://www.w3.org/2000/svg">
    <path fill-rule="evenodd" clip-rule="evenodd"
        d="M16 6.46601C16.0031 6.85081 15.8602 7.22248 15.6 7.50601L11.348 12L15.595 16.494C16.1352 17.0802 16.1352 17.9828 15.595 18.569C15.3431 18.8439 14.9874 19.0004 14.6145 19.0004C14.2417 19.0004 13.8859 18.8439 13.634 18.569L8.40701 13.037C7.86432 12.453 7.86432 11.5491 8.40701 10.965L13.634 5.43101C13.8859 5.15614 14.2417 4.99963 14.6145 4.99963C14.9874 4.99963 15.3431 5.15614 15.595 5.43101C15.8567 5.71198 16.0015 6.08207 16 6.46601Z"
        fill="#3F8AE0" />
</svg>
