<svg width="24" height="24" viewBox="0 0 24 24" fill="none" xmlns="http://www.w3.org/2000/svg">
    <path fill-rule="evenodd" clip-rule="evenodd"
        d="M5.805 6H18.2C18.6405 6.00284 18.9967 6.31259 19 6.69554V14.2535C18.9967 14.6365 18.6405 14.9462 18.2 14.949H5.8C5.35931 14.9467 5.00273 14.6367 5 14.2535V6.69554C5.00329 6.3109 5.36258 6.00047 5.805 6ZM15.5889 13.5555C15.8594 12.8046 16.536 12.2166 17.3999 11.9818L17.3909 8.97271C16.5269 8.73819 15.8501 8.15012 15.5799 7.39904H8.42089C8.15002 8.15009 7.47302 8.73804 6.60889 8.97271V11.9818C7.47302 12.2165 8.15002 12.8044 8.42089 13.5555H15.5889ZM11.9999 8.60929C10.9175 8.70422 10.1209 9.53394 10.2069 10.4768C10.1186 11.421 10.9158 12.2529 11.9999 12.3478C13.0839 12.2529 13.8812 11.421 13.7929 10.4768C13.8789 9.53394 13.0823 8.70422 11.9999 8.60929ZM5.26624 17.7685C5.09552 17.6201 4.99974 17.4187 5 17.2088V16.6002H18.999V17.2088C18.9993 17.4187 18.9035 17.6201 18.7328 17.7685C18.562 17.917 18.3304 18.0002 18.089 18H5.91C5.66857 18.0002 5.43696 17.917 5.26624 17.7685Z"
        fill="#6E80B0" />
</svg>
