<svg width="80" height="80" viewBox="0 0 80 80" fill="none" xmlns="http://www.w3.org/2000/svg">
    <rect width="80" height="80" rx="8" fill="#F4F5F7" />
    <g clip-path="url(#clip0)">
        <path
            d="M49.8182 16C46.0299 16 42.4674 17.4755 39.7912 20.1538L20.1548 39.7902C17.4765 42.4694 16 46.0309 16 49.8182C16 57.6378 22.3622 64.0001 30.1819 64.0001C33.9724 64.0001 37.5327 62.5246 40.2089 59.8463L59.8453 40.2109C62.5256 37.5316 64.0001 33.9701 64.0001 30.1818C64 22.3622 57.6378 16 49.8182 16ZM31.3281 37.8736L24.7827 44.418C23.3402 45.8605 22.5455 47.7791 22.5455 49.8182C22.5455 50.4212 22.0575 50.9092 21.4545 50.9092C20.8515 50.9092 20.3636 50.4212 20.3636 49.8182C20.3636 47.1954 21.3842 44.7302 23.24 42.8755L29.7855 36.331C30.2116 35.9048 30.902 35.9048 31.328 36.331C31.7543 36.7571 31.7543 37.4474 31.3281 37.8736ZM56.76 37.1257L47.7133 46.1714L33.8294 32.286L42.8765 23.239C44.7302 21.3843 47.1954 20.3636 49.8182 20.3636C55.2324 20.3636 59.6364 24.7677 59.6364 30.1818C59.6364 32.8046 58.6158 35.271 56.76 37.1257Z"
            fill="#C1C7D0" />
    </g>
    <defs>
        <clipPath id="clip0">
            <rect width="48" height="48" fill="white" transform="translate(16 16)" />
        </clipPath>
    </defs>
</svg>
