<svg width="32" height="32" viewBox="0 0 32 32" fill="none" xmlns="http://www.w3.org/2000/svg">
    <path d="M22.1239 18.2265L22.1239 26.6274" stroke="white" stroke-width="2"
        stroke-linecap="round" stroke-linejoin="round" />
    <path d="M9.20056 14.4794L9.20056 6.07841" stroke="white" stroke-width="2"
        stroke-linecap="round" stroke-linejoin="round" />
    <path fill-rule="evenodd" clip-rule="evenodd"
        d="M9.12834 20.365C7.4008 20.365 6 21.7759 6 23.5158C6 25.2558 7.4008 26.6667 9.12834 26.6667C10.8559 26.6667 12.2567 25.2558 12.2567 23.5158C12.2567 21.7759 10.8559 20.365 9.12834 20.365Z"
        stroke="white" stroke-width="2" stroke-linecap="round" stroke-linejoin="round" />
    <path fill-rule="evenodd" clip-rule="evenodd"
        d="M22.0717 5.33336C20.3442 5.33336 18.9434 6.74315 18.9434 8.48313C18.9434 10.2242 20.3442 11.6351 22.0717 11.6351C23.7992 11.6351 25.2 10.2242 25.2 8.48313C25.2 6.74315 23.7992 5.33335 22.0717 5.33336Z"
        stroke="white" stroke-width="2" stroke-linecap="round" stroke-linejoin="round" />
</svg>
