<svg width="16" height="16" viewBox="0 0 16 16" fill="none" xmlns="http://www.w3.org/2000/svg">
    <path
        d="M8.00008 5.33315C6.52674 5.33315 5.33343 6.52649 5.33343 7.9998C5.33343 9.47311 6.52674 10.6665 8.00008 10.6665C9.47342 10.6665 10.6667 9.47315 10.6667 7.99984C10.6667 6.52653 9.47339 5.33315 8.00008 5.33315ZM13.9601 7.33315C13.6534 4.55315 11.4467 2.3465 8.66674 2.03985V1.33318C8.66674 0.964983 8.36826 0.666504 8.00006 0.666504C7.63187 0.666504 7.33339 0.964983 7.33339 1.33318V2.03985C4.5534 2.3465 2.34675 4.55315 2.04009 7.33315H1.33342C0.965227 7.33315 0.666748 7.63163 0.666748 7.99982C0.666748 8.36801 0.965227 8.66649 1.33342 8.66649H2.04009C2.34675 11.4465 4.55343 13.6531 7.33343 13.9598V14.6665C7.33343 15.0347 7.6319 15.3332 8.00008 15.3332C8.36826 15.3332 8.66674 15.0347 8.66674 14.6665V13.9598C11.4467 13.6531 13.6534 11.4465 13.9601 8.66649H14.6667C15.0349 8.66649 15.3334 8.36801 15.3334 7.99982C15.3334 7.63163 15.0349 7.33315 14.6667 7.33315H13.9601ZM8.00008 12.6665C5.42343 12.6665 3.33343 10.5765 3.33343 7.99984C3.33343 5.42318 5.42343 3.33319 8.00008 3.33319C10.5767 3.33319 12.6667 5.42315 12.6667 7.99984C12.6667 10.5765 10.5767 12.6665 8.00008 12.6665Z"
        fill="#172B4D" />
</svg>
