<svg width="24" height="24" viewBox="0 0 24 24" fill="none" xmlns="http://www.w3.org/2000/svg">
    <path
        d="M9.88885 18.4645V16.2114C9.88885 15.6363 10.3585 15.17 10.9379 15.17H13.0557C13.3339 15.17 13.6008 15.2798 13.7975 15.4751C13.9942 15.6704 14.1047 15.9352 14.1047 16.2114V18.4645C14.103 18.7036 14.1974 18.9336 14.3671 19.1033C14.5368 19.273 14.7678 19.3684 15.0086 19.3684H16.4535C17.1283 19.3701 17.7761 19.1052 18.2539 18.6321C18.7317 18.1591 19.0002 17.5167 19.0002 16.8468V10.4281C19.0002 9.88692 18.7586 9.37361 18.3404 9.02643L13.4252 5.12936C12.5702 4.44607 11.3451 4.46814 10.5156 5.18176L5.71255 9.02643C5.27465 9.36338 5.01293 9.87821 5 10.4281V16.8402C5 18.2365 6.14019 19.3684 7.54669 19.3684H8.95859C9.45886 19.3684 9.86543 18.9677 9.86906 18.4711L9.88885 18.4645Z"
        fill="#6E80B0" />
</svg>
