<svg width="16" height="16" viewBox="0 0 16 16" fill="none" xmlns="http://www.w3.org/2000/svg">
    <path fill-rule="evenodd" clip-rule="evenodd"
        d="M8.55406 3.79205L9.7234 6.25872L12.1181 6.51272C12.366 6.53677 12.5747 6.70855 12.646 6.94723C12.7172 7.18592 12.6369 7.44399 12.4427 7.60005L10.5334 9.17005L11.1241 11.8094C11.178 12.0492 11.0834 12.2981 10.8838 12.4415C10.6841 12.5849 10.4181 12.5951 10.2081 12.4674L8.00006 11.1241L5.79006 12.4667C5.57993 12.5942 5.314 12.5839 5.11435 12.4406C4.9147 12.2972 4.81987 12.0486 4.8734 11.8087L5.46673 9.17005L3.5574 7.60005C3.36463 7.44359 3.28535 7.18626 3.35664 6.94845C3.42792 6.71063 3.63568 6.53935 3.88273 6.51472L6.27673 6.26072L7.44606 3.79205C7.54766 3.57818 7.76329 3.44189 8.00006 3.44189C8.23684 3.44189 8.45247 3.57818 8.55406 3.79205Z"
        fill="white" />
</svg>
