<svg width="24" height="24" viewBox="0 0 24 24" fill="none" xmlns="http://www.w3.org/2000/svg">
    <g id="Iconly/Bold/Info Circle">
        <g id="Info Circle">
            <path id="Info Circle_2" fill-rule="evenodd" clip-rule="evenodd"
                d="M2.0001 11.999C2.0001 6.48002 6.4801 1.99902 12.0001 1.99902C17.5301 1.99902 22.0001 6.48002 22.0001 11.999C22.0001 17.52 17.5301 21.999 12.0001 21.999C6.4801 21.999 2.0001 17.52 2.0001 11.999ZM11.136 14.2843C11.192 14.3403 11.2573 14.3683 11.332 14.3683H12.704C12.7298 14.3683 12.7545 14.3658 12.7781 14.3609C13.0479 14.3045 13.0928 13.9722 13.1324 13.6792C13.1388 13.6321 13.145 13.586 13.152 13.5423C13.208 13.2809 13.3153 13.0383 13.474 12.8143C13.642 12.5809 13.8753 12.3009 14.174 11.9743C14.594 11.5263 14.9067 11.1343 15.112 10.7983C15.3267 10.4529 15.434 10.0423 15.434 9.56628C15.434 9.15561 15.3173 8.75894 15.084 8.37628C14.86 7.99361 14.496 7.68094 13.992 7.43828C13.4973 7.18628 12.8627 7.06028 12.088 7.06028C11.3507 7.06028 10.7067 7.20028 10.156 7.48028C9.60533 7.75094 9.18533 8.11028 8.896 8.55828C8.60667 9.00628 8.45267 9.48694 8.434 10.0003C8.434 10.1029 8.462 10.1869 8.518 10.2523C8.574 10.3083 8.64867 10.3363 8.742 10.3363H9.932C10.1373 10.3363 10.2727 10.2289 10.338 10.0143C10.5247 9.10894 11.0753 8.65628 11.99 8.65628C12.4007 8.65628 12.7507 8.77294 13.04 9.00628C13.3293 9.23028 13.4553 9.53361 13.418 9.91628C13.39 10.1403 13.2967 10.3596 13.138 10.5743C12.9793 10.7889 12.746 11.0456 12.438 11.3443C12.018 11.7736 11.6913 12.1563 11.458 12.4923C11.234 12.8189 11.0987 13.2016 11.052 13.6403V14.0883C11.052 14.1629 11.08 14.2283 11.136 14.2843ZM11.052 16.9023C11.1173 16.9676 11.1967 17.0003 11.29 17.0003H12.648C12.7507 17.0003 12.8347 16.9676 12.9 16.9023C12.9653 16.8369 12.998 16.7576 12.998 16.6643V15.4463C12.998 15.3436 12.9653 15.2596 12.9 15.1943C12.8347 15.1289 12.7507 15.0963 12.648 15.0963H11.29C11.1967 15.0963 11.1173 15.1336 11.052 15.2083C10.9867 15.2736 10.954 15.3529 10.954 15.4463V16.6643C10.954 16.7576 10.9867 16.8369 11.052 16.9023Z"
                fill="#C1C7D0" />
        </g>
    </g>
</svg>
