<svg width="24" height="24" viewBox="0 0 24 24" fill="none" xmlns="http://www.w3.org/2000/svg">
    <path fill-rule="evenodd" clip-rule="evenodd"
        d="M8.79091 4.0002C8.79091 3.83451 8.92523 3.7002 9.09091 3.7002H10.5455C10.7112 3.7002 10.8455 3.83451 10.8455 4.0002V5.20019H15.6364C15.8021 5.20019 15.9364 5.33451 15.9364 5.50019V7.00392C15.9364 7.16961 15.8021 7.30392 15.6364 7.30392H13.7268C13.2004 8.95961 12.354 10.5272 11.1934 11.9112L12.8469 13.5963C12.9277 13.6786 12.9541 13.8 12.9148 13.9085L12.3621 15.4348C12.3269 15.532 12.2441 15.6043 12.143 15.6259C12.0418 15.6476 11.9367 15.6157 11.8647 15.5415L9.81821 13.4311L6.39719 16.9589C6.34069 17.0172 6.26299 17.0501 6.18183 17.0501C6.10066 17.0501 6.02296 17.0172 5.96646 16.9589L4.93735 15.8977C4.82403 15.7808 4.82458 15.5949 4.93859 15.4787L8.44434 11.9061C7.59893 10.8965 6.91611 9.78858 6.40847 8.61966C6.3682 8.52693 6.37735 8.42015 6.4328 8.33561C6.48825 8.25108 6.58255 8.20016 6.68365 8.20016H8.13817C8.25206 8.20016 8.35613 8.26464 8.40682 8.36663C8.78872 9.13496 9.25917 9.8663 9.81828 10.5481C10.6317 9.55638 11.2574 8.45319 11.6973 7.29267H4C3.83432 7.29267 3.7 7.15836 3.7 6.99267V5.50019C3.7 5.33451 3.83432 5.20019 4 5.20019H8.79091V4.0002ZM14.9908 9.89775C15.0339 9.77919 15.1465 9.70027 15.2727 9.70027H16.7273C16.8534 9.70027 16.9661 9.77919 17.0092 9.89775L20.2819 18.8977C20.3154 18.9896 20.3019 19.0921 20.2457 19.1723C20.1896 19.2525 20.0979 19.3002 20 19.3002H18.5454C18.4193 19.3002 18.3066 19.2213 18.2635 19.1027L17.5171 17.0502H14.4828L13.7365 19.1027C13.6933 19.2213 13.5807 19.3002 13.4545 19.3002H12C11.9021 19.3002 11.8104 19.2525 11.7542 19.1723C11.6981 19.0921 11.6846 18.9896 11.718 18.8977L14.9908 9.89775ZM15.2464 14.9502H16.7536L16 12.8771L15.2464 14.9502Z"
        fill="#C1C7D0" />
</svg>
