<svg width="26" height="25" viewBox="0 0 26 25" fill="none" xmlns="http://www.w3.org/2000/svg">
    <path
        d="M13.0007 14.9076C13.0007 14.8081 12.9636 14.7122 12.8966 14.6386C12.748 14.4751 12.495 14.4632 12.3315 14.6118L8.04422 18.5114C8.02863 18.5256 8.01363 18.5406 7.99943 18.5562C7.7518 18.8287 7.77201 19.2503 8.04447 19.4979L12.3338 23.3953C12.4075 23.4622 12.5034 23.4993 12.6029 23.4993C12.8238 23.4992 13.0029 23.3201 13.0028 23.0992L13.002 20.0034C17.4203 20.0022 21.0011 16.4196 21 12.0013C20.9988 7.58302 17.4162 4.00224 12.9979 4.00337C8.57961 4.0045 4.99883 7.58711 4.99996 12.0054C5.0001 12.5577 5.44791 13.0053 6.00021 13.0052C6.55251 13.005 7.0001 12.5572 6.99996 12.0049C6.99911 8.6912 9.68472 6.00421 12.9984 6.00337C16.3121 6.00252 18.9991 8.68813 19 12.0018C19.0008 15.3156 16.3152 18.0025 13.0015 18.0034L13.0007 14.9076Z"
        fill="#3F8AE0" />
</svg>
