<svg width="24" height="24" viewBox="0 0 24 24" fill="none" xmlns="http://www.w3.org/2000/svg">
    <path fill-rule="evenodd" clip-rule="evenodd"
        d="M12.0001 19.0002C8.13605 19.0002 5 15.8712 5 12.0001C5 8.13605 8.13605 5 12.0001 5C15.8712 5 19.0002 8.13605 19.0002 12.0001C19.0002 15.8712 15.8712 19.0002 12.0001 19.0002ZM14.233 14.5972C14.317 14.6462 14.408 14.6742 14.506 14.6742C14.681 14.6742 14.856 14.5832 14.954 14.4152C15.101 14.1702 15.024 13.8481 14.772 13.6941L12.2799 12.2101V8.97606C12.2799 8.68206 12.0419 8.45106 11.7549 8.45106C11.4679 8.45106 11.2299 8.68206 11.2299 8.97606V12.5111C11.2299 12.6931 11.3279 12.8611 11.4889 12.9591L14.233 14.5972Z"
        fill="#6E80B0" />
</svg>
