<svg width="24" height="24" viewBox="0 0 24 24" fill="none" xmlns="http://www.w3.org/2000/svg">
    <path fill-rule="evenodd" clip-rule="evenodd"
        d="M16.0382 9.46746H19C19 7.08941 17.5751 5.7002 15.1609 5.7002H8.83911C6.42489 5.7002 5 7.08941 5 9.43712V14.5633C5 16.911 6.42489 18.3002 8.83911 18.3002H15.1609C17.5751 18.3002 19 16.911 19 14.5633V14.3449H16.0382C14.6636 14.3449 13.5493 13.2585 13.5493 11.9183C13.5493 10.5781 14.6636 9.49172 16.0382 9.49172V9.46746ZM16.0382 10.5109H18.4773C18.766 10.5109 19 10.739 19 11.0205V12.7919C18.9966 13.0719 18.7646 13.2982 18.4773 13.3015H16.0942C15.3983 13.3106 14.7898 12.8461 14.632 12.1852C14.5529 11.775 14.6639 11.3517 14.9351 11.0288C15.2064 10.7058 15.6101 10.5163 16.0382 10.5109ZM16.1441 12.3733H16.3743C16.6699 12.3733 16.9094 12.1398 16.9094 11.8516C16.9094 11.5635 16.6699 11.3299 16.3743 11.3299H16.1441C16.0028 11.3283 15.8666 11.3819 15.7661 11.4788C15.6656 11.5757 15.609 11.7077 15.609 11.8456C15.609 12.1347 15.8476 12.37 16.1441 12.3733ZM8.31648 9.46745H12.2676C12.5631 9.46745 12.8027 9.23387 12.8027 8.94573C12.8027 8.6576 12.5631 8.42402 12.2676 8.42402H8.31648C8.02336 8.424 7.78478 8.6539 7.78137 8.93966C7.78135 9.2288 8.01995 9.46412 8.31648 9.46745Z"
        fill="#6E80B0" />
</svg>
