<svg width="24" height="24" viewBox="0 0 24 24" fill="none" xmlns="http://www.w3.org/2000/svg">
<path fill-rule="evenodd" clip-rule="evenodd" d="M11.0931 6.06329C10.6239 6.06329 10.2247 6.38936 10.1126 6.82885H13.8805C13.7684 6.38936 13.3692 6.06329 12.9 6.06329H11.0931ZM14.945 6.82885H16.3317C17.8024 6.82885 19 8.041 19 9.5296C19 9.5296 18.958 10.1598 18.944 11.0373C18.9426 11.1068 18.909 11.1749 18.8536 11.216C18.5168 11.4648 18.2086 11.6703 18.1806 11.6845C17.018 12.4643 15.667 13.0129 14.2278 13.2858C14.134 13.3043 14.0415 13.2554 13.9939 13.1717C13.5905 12.4728 12.8369 12.0177 11.9965 12.0177C11.1617 12.0177 10.4011 12.4678 9.98579 13.1675C9.93747 13.2497 9.84642 13.2972 9.75328 13.2795C8.32596 13.0058 6.97499 12.4579 5.81941 11.6916L5.14707 11.2238C5.09105 11.1883 5.05603 11.1245 5.05603 11.0536C5.03502 10.6921 5 9.5296 5 9.5296C5 8.041 6.1976 6.82885 7.66833 6.82885H9.04802C9.18109 5.80101 10.0425 5 11.093 5H12.8999C13.9505 5 14.8119 5.80101 14.945 6.82885ZM18.7619 12.5707L18.7339 12.5849C17.3192 13.5347 15.6173 14.1656 13.8314 14.4279C13.5793 14.4633 13.3272 14.3003 13.2572 14.0451C13.1031 13.4638 12.6058 13.0811 12.0105 13.0811H12.0035H11.9895C11.3942 13.0811 10.897 13.4638 10.7429 14.0451C10.6729 14.3003 10.4207 14.4633 10.1686 14.4279C8.38272 14.1656 6.68087 13.5347 5.26617 12.5849C5.25916 12.5778 5.18913 12.5352 5.1331 12.5707C5.07007 12.6061 5.07007 12.6912 5.07007 12.6912L5.11909 16.3064C5.11909 17.795 6.30969 19 7.78042 19H16.2126C17.6834 19 18.874 17.795 18.874 16.3064L18.93 12.6912C18.93 12.6912 18.93 12.6061 18.867 12.5707C18.8319 12.5494 18.7899 12.5565 18.7619 12.5707ZM12.5218 15.5408C12.5218 15.8385 12.2906 16.0724 11.9965 16.0724C11.7094 16.0724 11.4712 15.8385 11.4712 15.5408V14.6263C11.4712 14.3357 11.7094 14.0947 11.9965 14.0947C12.2906 14.0947 12.5218 14.3357 12.5218 14.6263V15.5408Z" fill="#6E80B0"/>
</svg>
